<?xml version="1.0" encoding="utf-8"?>
<!-- Generator: Adobe Illustrator 19.0.0, SVG Export Plug-In . SVG Version: 6.00 Build 0)  -->
<svg version="1.1" id="Layer_1" xmlns="http://www.w3.org/2000/svg" xmlns:xlink="http://www.w3.org/1999/xlink" x="0px" y="0px"
	 viewBox="0 0 30 30" style="enable-background:new 0 0 30 30;" xml:space="preserve">
<style type="text/css">
	.st0{fill:#A08F7D;}
</style>
<g id="XMLID_27_">
	<path id="XMLID_28_" class="st0" d="M10.2,26.9c-0.3,0.2-0.4,0.3-0.5,0.3c-0.1,0-0.1-0.2-0.1-0.5v-2.4c0-0.2,0-0.3,0-0.4
		c0-0.1,0-0.2,0.1-0.3s0.1-0.1,0.2-0.2s0.2-0.2,0.3-0.3l8.3-7.8c0.2-0.2,0.3-0.3,0.3-0.4c0-0.1-0.1-0.2-0.2-0.4l-8.4-7.7
		C10,6.7,9.9,6.6,9.8,6.6C9.8,6.5,9.7,6.4,9.7,6.3c0-0.1,0-0.2-0.1-0.3c0-0.1,0-0.2,0-0.4V3.3c0-0.3,0-0.5,0.1-0.5
		c0.1,0,0.2,0.1,0.5,0.3l11.3,10.4c0.2,0.2,0.3,0.3,0.3,0.4c0,0.1,0.1,0.3,0.1,0.5v1.2c0,0.3,0,0.4-0.1,0.5c0,0.1-0.2,0.2-0.3,0.4
		L10.2,26.9z"/>
</g>
</svg>
