<?xml version="1.0" encoding="utf-8"?>
<!-- Generator: Adobe Illustrator 19.0.0, SVG Export Plug-In . SVG Version: 6.00 Build 0)  -->
<svg version="1.1" id="Layer_1" xmlns="http://www.w3.org/2000/svg" xmlns:xlink="http://www.w3.org/1999/xlink" x="0px" y="0px"
	 viewBox="-429 266 100 29" style="enable-background:new -429 266 100 29;" xml:space="preserve">
<style type="text/css">
	.st0{fill:#C1B29F;}
</style>
<g id="XMLID_2_">
	<g id="XMLID_9_">
		<path id="XMLID_25_" class="st0" d="M-402.6,287.9h-4.5v-0.4c0.6,0,1-0.1,1.1-0.3c0.2-0.2,0.3-0.5,0.3-1v-7c0-0.5-0.1-0.8-0.3-1
			c-0.3-0.2-0.6-0.3-1.1-0.3v-0.4h4.5v0.4c-0.6,0-1,0.1-1.1,0.3c-0.2,0.1-0.3,0.5-0.3,1v7c0,0.8,0.4,1.2,1.4,1.3V287.9z"/>
		<path id="XMLID_22_" class="st0" d="M-391.3,287.9h-2.3c-0.4,0-0.9-0.2-1.2-0.7l-3.7-5v4c0,0.8,0.5,1.2,1.5,1.3v0.4h-4.5v-0.4
			c0.6,0,1-0.1,1.1-0.3c0.2-0.2,0.3-0.5,0.3-1v-7c0-0.5-0.1-0.8-0.3-1c-0.3-0.2-0.6-0.3-1.1-0.3v-0.4h5.9c1.8,0,2.6,0.6,2.6,1.8
			c0,1.3-1,2.5-2.9,3.4l2.1,2.8c1,1.2,1.8,1.9,2.6,1.9L-391.3,287.9L-391.3,287.9z M-394.9,280.4c0-0.7-0.1-1.2-0.4-1.7
			c-0.4-0.6-0.9-0.9-1.6-0.9c-0.5,0-1,0.1-1.5,0.4v3.4c0.7,0.4,1.3,0.7,1.9,0.7C-395.4,282.3-394.9,281.7-394.9,280.4z"/>
		<path id="XMLID_20_" class="st0" d="M-381.9,280.2h-0.7c0-1.5-1-2.3-2.9-2.3h-0.5v8.3c0,0.8,0.4,1.2,1.4,1.3v0.4h-4.5v-0.4
			c0.6,0,1-0.1,1.1-0.3c0.2-0.2,0.3-0.5,0.3-1v-8.3h-0.7c-1.7,0-2.6,0.8-2.6,2.3h-0.6v-3.1h0.4c0.1,0.2,0.2,0.4,0.4,0.4h8.1
			c0.2,0,0.3-0.1,0.3-0.4h0.4L-381.9,280.2L-381.9,280.2z"/>
		<path id="XMLID_18_" class="st0" d="M-369.3,287.9h-4.5v-0.4c0.5,0,1-0.1,1.1-0.3c0.2-0.2,0.3-0.5,0.3-1v-3.7h-5.7v3.7
			c0,0.8,0.4,1.2,1.4,1.3v0.4h-4.5v-0.4c0.6,0,1-0.1,1.1-0.3c0.2-0.2,0.3-0.5,0.3-1v-7c0-0.5-0.1-0.8-0.3-1
			c-0.2-0.1-0.6-0.3-1.1-0.3v-0.4h4.5v0.4c-0.6,0-1,0.1-1.1,0.3c-0.2,0.1-0.3,0.5-0.3,1v2.8h5.7v-2.8c0-0.5-0.1-0.8-0.3-1
			c-0.2-0.1-0.6-0.3-1.1-0.3v-0.4h4.5v0.4c-0.6,0-1,0.1-1.1,0.3c-0.2,0.1-0.3,0.5-0.3,1v7c0,0.5,0.1,0.8,0.3,1
			c0.2,0.1,0.6,0.3,1.1,0.3V287.9z"/>
		<path id="XMLID_15_" class="st0" d="M-355.9,281.6c0,1.8-0.7,3.4-2.1,4.5c-1.4,1.2-3.2,1.8-5.3,1.8h-4.9v-0.4c0.6,0,1-0.1,1.1-0.3
			c0.2-0.2,0.3-0.5,0.3-1v-7c0-0.5-0.1-0.8-0.3-1c-0.1-0.2-0.5-0.3-1-0.3v-0.4h7.3C-357.5,277.5-355.9,278.9-355.9,281.6z
			 M-357.6,282.6c0-3.2-1.5-4.8-4.6-4.8c-1.1,0-2,0.2-2.7,0.7v8.1c1,0.5,2,0.7,2.9,0.7c1.4,0,2.6-0.5,3.4-1.5
			C-357.9,285-357.6,283.9-357.6,282.6z"/>
		<path id="XMLID_12_" class="st0" d="M-344.6,287.9h-3.4v-0.4h0.2c0.1,0,0.1-0.1,0.1-0.3c0-0.1,0-0.1-0.1-0.1l-1.1-2.8h-4
			c-0.4,1-0.7,1.8-0.7,2.3c0,0.3,0.1,0.5,0.3,0.7c0.2,0.1,0.4,0.2,0.8,0.2h0.5v0.4h-4.2v-0.4c0.7,0,1.3-0.7,1.9-1.9l3.8-8.5h0.5
			l3.3,8.3c0.2,0.6,0.4,1,0.7,1.3c0.4,0.5,0.7,0.8,1.2,0.8C-344.6,287.5-344.6,287.9-344.6,287.9z M-348.9,283.7l-1.7-4.3l-2,4.3
			H-348.9z"/>
		<path id="XMLID_10_" class="st0" d="M-334,277.9c-0.7,0-1.4,0.6-2.2,1.8l-2.9,4.2v2.3c0,0.8,0.4,1.2,1.4,1.3v0.4h-4.5v-0.4
			c0.6,0,1-0.1,1.1-0.3c0.2-0.2,0.3-0.5,0.3-1v-2.3l-2.3-4.1c-0.3-0.6-0.6-1-0.8-1.2c-0.4-0.4-0.8-0.7-1.2-0.7v-0.4h3.4v0.4
			c-0.2,0-0.4,0.1-0.4,0.2c0,0.1,0,0.1,0.1,0.1l2.9,5.1c1.5-2.1,2.3-3.5,2.3-4.5c0-0.4-0.1-0.7-0.4-0.8c-0.4-0.1-0.8-0.1-1.3-0.1
			v-0.4h4.5V277.9z"/>
	</g>
	<g id="XMLID_3_">
		<path id="XMLID_8_" class="st0" d="M-418.8,281.7C-418.8,281.8-418.8,281.8-418.8,281.7L-418.8,281.7z"/>
		<path id="XMLID_4_" class="st0" d="M-411.3,278.3c0,0,1.4,0,1.4-2.8c0-3.5-3.7-3.5-3.7-3.5h-8.3v0.7c0,0,1-0.1,1.3,0.2v7.5v5.3
			c0,0,0,1.2-0.2,1.2c-0.6,0-1.1,0-1.1,0v0.9h9.3c0,0,4,0.1,4-4.6C-408.6,278.4-411.3,278.3-411.3,278.3z M-418.9,273.5h2.9
			c0,0-1,0.7-1.7,1.6c-1.1,1.5-1.3,4.5-1.3,4.5L-418.9,273.5L-418.9,273.5z M-413.3,278c-0.4,1.3-1.2,2.3-2.4,2.6
			c-1.1,0.2-3.4,0.2-3.4,0.2s0.1,0.4,0.1,1c0,0,0.9-0.6,2.3,0.3c0.9,0.5,1.1,1,1.1,1s0.1,0-0.1-0.5s-0.7-0.8-0.7-0.8
			s0.4-0.1,1.1,0.4c0.7,0.6,0.7,1.7,0.7,2.3c0,0.1-0.1,0.7-0.1,0.7s-0.1-0.1-0.3-0.2c-0.2-0.1-0.7,0.1-1.5-0.4s-1-1.9-1.3-2.2
			c-0.3-0.7-1-0.5-1-0.5c0.1,0.8,0.4,1.8,0.7,2.5c0.4,1.2,1.2,2,1.2,2h-2.1v-5.6c0,0,1.2-2.2,2.6-3.5c1.2-1,2.6-1.4,2.6-1.4
			s-0.9-0.1-2.3,0.7c-1.4,0.8-2.1,1.7-2.1,1.7s1.1-4.1,3.5-4.1c2.4,0,3.4,0.7,3.4,0.7S-412.8,276.6-413.3,278z"/>
	</g>
</g>
</svg>
