<?xml version="1.0" encoding="utf-8"?>
<!-- Generator: Adobe Illustrator 19.0.0, SVG Export Plug-In . SVG Version: 6.00 Build 0)  -->
<svg version="1.1" id="Layer_1" xmlns="http://www.w3.org/2000/svg" xmlns:xlink="http://www.w3.org/1999/xlink" x="0px" y="0px"
	 viewBox="0 0 100 29" style="enable-background:new 0 0 100 29;" xml:space="preserve">
<style type="text/css">
	.st0{fill:#FFFFFF;}
</style>
<g id="XMLID_2_">
	<g id="XMLID_9_">
		<path id="XMLID_25_" class="st0" d="M25,22h-4.5v-0.4c0.6,0,1-0.1,1.1-0.3c0.2-0.2,0.3-0.5,0.3-1v-7c0-0.5-0.1-0.8-0.3-1
			C21.3,12.1,21,12,20.5,12v-0.4H25V12c-0.6,0-1,0.1-1.1,0.3c-0.2,0.1-0.3,0.5-0.3,1v7c0,0.8,0.4,1.2,1.4,1.3V22z"/>
		<path id="XMLID_22_" class="st0" d="M36.4,22h-2.3c-0.4,0-0.9-0.2-1.2-0.7l-3.7-5v4c0,0.8,0.5,1.2,1.5,1.3V22h-4.5v-0.4
			c0.6,0,1-0.1,1.1-0.3c0.2-0.2,0.3-0.5,0.3-1v-7c0-0.5-0.1-0.8-0.3-1C27,12.1,26.7,12,26.2,12v-0.4h5.9c1.8,0,2.6,0.6,2.6,1.8
			c0,1.3-1,2.5-2.9,3.4l2.1,2.8c1,1.2,1.8,1.9,2.6,1.9L36.4,22L36.4,22z M32.7,14.5c0-0.7-0.1-1.2-0.4-1.7c-0.4-0.6-0.9-0.9-1.6-0.9
			c-0.5,0-1,0.1-1.5,0.4v3.4c0.7,0.4,1.3,0.7,1.9,0.7C32.2,16.4,32.7,15.8,32.7,14.5z"/>
		<path id="XMLID_20_" class="st0" d="M45.7,14.3h-0.7c0-1.5-1-2.3-2.9-2.3h-0.5v8.3c0,0.8,0.4,1.2,1.4,1.3v0.4h-4.5v-0.4
			c0.6,0,1-0.1,1.1-0.3c0.2-0.2,0.3-0.5,0.3-1V12h-0.7c-1.7,0-2.6,0.8-2.6,2.3H36v-3.1h0.4c0.1,0.2,0.2,0.4,0.4,0.4h8.1
			c0.2,0,0.3-0.1,0.3-0.4h0.4L45.7,14.3L45.7,14.3z"/>
		<path id="XMLID_18_" class="st0" d="M58.3,22h-4.5v-0.4c0.5,0,1-0.1,1.1-0.3c0.2-0.2,0.3-0.5,0.3-1v-3.7h-5.7v3.7
			c0,0.8,0.4,1.2,1.4,1.3V22h-4.5v-0.4c0.6,0,1-0.1,1.1-0.3c0.2-0.2,0.3-0.5,0.3-1v-7c0-0.5-0.1-0.8-0.3-1c-0.2-0.1-0.6-0.3-1.1-0.3
			v-0.4h4.5V12c-0.6,0-1,0.1-1.1,0.3c-0.2,0.1-0.3,0.5-0.3,1v2.8h5.7v-2.8c0-0.5-0.1-0.8-0.3-1c-0.2-0.1-0.6-0.3-1.1-0.3v-0.4h4.5
			V12c-0.6,0-1,0.1-1.1,0.3c-0.2,0.1-0.3,0.5-0.3,1v7c0,0.5,0.1,0.8,0.3,1c0.2,0.1,0.6,0.3,1.1,0.3V22z"/>
		<path id="XMLID_15_" class="st0" d="M71.7,15.7c0,1.8-0.7,3.4-2.1,4.5c-1.4,1.2-3.2,1.8-5.3,1.8h-4.9v-0.4c0.6,0,1-0.1,1.1-0.3
			c0.2-0.2,0.3-0.5,0.3-1v-7c0-0.5-0.1-0.8-0.3-1C60.4,12.1,60,12,59.5,12v-0.4h7.3C70.1,11.6,71.7,13,71.7,15.7z M70,16.7
			c0-3.2-1.5-4.8-4.6-4.8c-1.1,0-2,0.2-2.7,0.7v8.1c1,0.5,2,0.7,2.9,0.7c1.4,0,2.6-0.5,3.4-1.5C69.7,19.1,70,18,70,16.7z"/>
		<path id="XMLID_12_" class="st0" d="M83,22h-3.4v-0.4h0.2c0.1,0,0.1-0.1,0.1-0.3c0-0.1,0-0.1-0.1-0.1l-1.1-2.8h-4
			c-0.4,1-0.7,1.8-0.7,2.3c0,0.3,0.1,0.5,0.3,0.7c0.2,0.1,0.4,0.2,0.8,0.2h0.5V22h-4.2v-0.4c0.7,0,1.3-0.7,1.9-1.9l3.8-8.5h0.5
			l3.3,8.3c0.2,0.6,0.4,1,0.7,1.3c0.4,0.5,0.7,0.8,1.2,0.8C83,21.6,83,22,83,22z M78.7,17.8L77,13.5l-2,4.3H78.7z"/>
		<path id="XMLID_10_" class="st0" d="M93.6,12c-0.7,0-1.4,0.6-2.2,1.8L88.5,18v2.3c0,0.8,0.4,1.2,1.4,1.3v0.4h-4.5v-0.4
			c0.6,0,1-0.1,1.1-0.3c0.2-0.2,0.3-0.5,0.3-1V18l-2.3-4.1c-0.3-0.6-0.6-1-0.8-1.2c-0.4-0.4-0.8-0.7-1.2-0.7v-0.4h3.4V12
			c-0.2,0-0.4,0.1-0.4,0.2c0,0.1,0,0.1,0.1,0.1l2.9,5.1c1.5-2.1,2.3-3.5,2.3-4.5c0-0.4-0.1-0.7-0.4-0.8C90,12,89.6,12,89.1,12v-0.4
			h4.5V12z"/>
	</g>
	<g id="XMLID_3_">
		<path id="XMLID_8_" class="st0" d="M8.8,15.8c0,0.1,0,0.1,0,0.1V15.8z"/>
		<path id="XMLID_4_" class="st0" d="M16.3,12.4c0,0,1.4,0,1.4-2.8c0-3.5-3.7-3.5-3.7-3.5H5.7v0.7c0,0,1-0.1,1.3,0.2v7.5v5.3
			c0,0,0,1.2-0.2,1.2c-0.6,0-1.1,0-1.1,0v0.9H15c0,0,4,0.1,4-4.6C19,12.5,16.3,12.4,16.3,12.4z M8.7,7.6h2.9c0,0-1,0.7-1.7,1.6
			c-1.1,1.5-1.3,4.5-1.3,4.5L8.7,7.6L8.7,7.6z M14.4,12.1c-0.4,1.3-1.2,2.3-2.4,2.6c-1.1,0.2-3.4,0.2-3.4,0.2s0.1,0.4,0.1,1
			c0,0,0.9-0.6,2.3,0.3c0.9,0.5,1.1,1,1.1,1s0.1,0-0.1-0.5c-0.2-0.5-0.7-0.8-0.7-0.8s0.4-0.1,1.1,0.4c0.7,0.6,0.7,1.7,0.7,2.3
			c0,0.1-0.1,0.7-0.1,0.7s-0.1-0.1-0.3-0.2c-0.2-0.1-0.7,0.1-1.5-0.4c-0.8-0.5-1-1.9-1.3-2.2C9.6,15.8,8.9,16,8.9,16
			c0.1,0.8,0.4,1.8,0.7,2.5c0.4,1.2,1.2,2,1.2,2H8.7v-5.6c0,0,1.2-2.2,2.6-3.5c1.2-1,2.6-1.4,2.6-1.4s-0.9-0.1-2.3,0.7
			s-2.1,1.7-2.1,1.7s1.1-4.1,3.5-4.1S16.4,9,16.4,9S14.8,10.7,14.4,12.1z"/>
	</g>
</g>
</svg>
