<?xml version="1.0" encoding="utf-8"?>
<!-- Generator: Adobe Illustrator 19.0.0, SVG Export Plug-In . SVG Version: 6.00 Build 0)  -->
<svg version="1.1" id="Layer_1" xmlns="http://www.w3.org/2000/svg" xmlns:xlink="http://www.w3.org/1999/xlink" x="0px" y="0px"
	 viewBox="0 0 156.2 132.2" style="enable-background:new 0 0 156.2 132.2;" xml:space="preserve">
<style type="text/css">
	.st0{fill:#FFFFFF;}
</style>
<g id="XMLID_27_">
	<path id="XMLID_28_" class="st0" d="M113.4,25.3c-0.9,0.2-1.8,0.3-2.7,0.6c-0.9,0.2-1.8,0.6-3.1,1.1c5.7,3.5,8.1,8.3,6.9,14.5
		c-1.3,6.3-6.4,8.8-12,10.8c2.1,3.2,2.8,6.5,2.6,10.1c-0.6,9.4-7.1,17.2-15.2,18.4c-2.6,0.4-5.1,0.3-7.5-1c-1.8-1-2.7-2.8-2.9-4.9
		c-0.5-4.7,1.4-8.4,4.7-11.6c1.3-1.3,2.9-2.3,4.4-3.4c0.4-0.3,0.9-0.6,1.3-0.7c0.5-0.1,1,0.1,1.5,0.2c-0.3,0.4-0.5,0.8-0.8,1.1
		c-1.5,1-3.1,1.9-4.5,3c-2.5,2.1-4.5,4.7-5.1,8c-0.3,1.4-0.2,3,0.2,4.4c0.7,2.5,3.7,3.5,5.9,2.1c1.6-1,3.1-2.4,4.4-3.8
		c4.3-4.8,7.8-10,8.9-16.5c0.1-0.4,0.1-0.9,0.1-1.3c0.1-3.3,0-3.3-3.3-3.2c-1.7,0-3.4-0.3-5-0.7c-1.5-0.4-2.4-1.9-2.2-3.2
		c0.2-1.2,0.8-2,2.2-2c2.7-0.1,5.2,0.5,7.3,2.4c1.1,1,2,0.9,3.1,0.1c4.1-3,7.6-9.4,5.6-15.9c-0.2-0.5-0.4-1-0.7-1.5
		c-1.8-3.3-3.1-3.6-5.4-0.8c-3.8,4.6-7.5,9.4-11,14.3c-4.5,6.3-8.7,12.9-13.2,19.3c-4,5.7-8.7,10.7-15.2,13.6
		c-4.8,2.1-9.8,2.9-15,1.5c-4.8-1.3-7.9-5.7-6.9-10c0.5-2.2,1.8-3.3,4-3.3c1.9,0,2.9,1,3.2,3.2c0.3,1.8,0,4-2.4,5.1
		c-1.7,0.8-1.7,1.4,0,2.4c4.3,2.6,9.9,2,14.5-1.5c4.1-3.2,7.2-7.3,9.9-11.7c4.4-7,8.7-14.1,14-20.5C88.8,38.1,94.2,33,100.6,29
		c0.5-0.3,1-0.7,1.8-1.2c-0.8-0.4-1.3-0.7-1.9-0.9c-4-1.3-8.1-1.6-12.3-1.3c-5.8,0.4-11,2.4-15.9,5.3c-5.4,3.2-9.7,7.4-10.9,13.9
		c-0.7,3.6,0.8,7,3.6,8.2c0.8,0.3,1.8,0.4,2.6,0.2c3.8-0.8,6.2-3.6,8.5-6.4c3.3-4,5.1-8.6,5.5-13.8c0-0.4,0.4-0.7,0.5-1.1
		c0.2,0.3,0.6,0.7,0.6,1c0,8.5-3,15.5-10.1,20.5c-3.7,2.6-8,2-10.7-1c-2.1-2.4-2.2-5.2-1.6-8.1c0.8-4.4,3.3-7.8,6.5-10.8
		c5-4.9,11-7.9,17.9-9c6.8-1.1,13.7-1.3,20.3,1.2c0.6,0.2,1.4,0.2,2,0c1.3-0.3,2.5-0.8,3.8-1c0.8-0.2,1.6,0,2.4,0
		C113.3,24.9,113.3,25.1,113.4,25.3z M98.5,50.9c-1-1.7-4.8-3-6.5-2.2c-1,0.5-0.7,1.2-0.1,1.8C93.2,51.8,96.8,52,98.5,50.9z"/>
</g>
<g id="XMLID_2_">
	<g id="XMLID_9_">
		<path id="XMLID_25_" class="st0" d="M44,107.4h-6.2v-0.5c0.8,0,1.3-0.1,1.5-0.4c0.3-0.3,0.4-0.7,0.4-1.4v-9.6
			c0-0.7-0.1-1.1-0.4-1.4c-0.3-0.2-0.8-0.4-1.5-0.4v-0.5H44v0.5c-0.8,0-1.3,0.1-1.5,0.4c-0.3,0.2-0.4,0.7-0.4,1.4v9.6
			c0,1.1,0.6,1.7,1.9,1.8V107.4z"/>
		<path id="XMLID_22_" class="st0" d="M59.5,107.4h-3.1c-0.6,0-1.2-0.3-1.6-1l-5-6.8v5.5c0,1.1,0.7,1.7,2,1.8v0.5h-6.2v-0.5
			c0.8,0,1.3-0.1,1.5-0.4c0.3-0.3,0.4-0.7,0.4-1.4v-9.6c0-0.7-0.1-1.1-0.4-1.4c-0.3-0.2-0.8-0.4-1.5-0.4v-0.5h8.1
			c2.4,0,3.6,0.8,3.6,2.4c0,1.8-1.3,3.4-4,4.7l2.8,3.8c1.3,1.7,2.4,2.6,3.5,2.6V107.4z M54.5,97.2c0-0.9-0.2-1.6-0.6-2.3
			c-0.5-0.8-1.2-1.2-2.2-1.2c-0.7,0-1.3,0.2-2,0.6v4.6c1,0.6,1.8,0.9,2.6,0.9C53.8,99.8,54.5,99,54.5,97.2z"/>
		<path id="XMLID_20_" class="st0" d="M72.3,96.9h-0.9c0-2.1-1.3-3.2-3.9-3.2h-0.7v11.3c0,1.1,0.6,1.7,1.9,1.8v0.5h-6.2v-0.5
			c0.8,0,1.3-0.1,1.5-0.4c0.3-0.3,0.4-0.7,0.4-1.4V93.7h-0.9c-2.3,0-3.6,1.1-3.6,3.2h-0.9v-4.2h0.6c0.1,0.3,0.3,0.5,0.5,0.5h11.1
			c0.3,0,0.4-0.2,0.4-0.5h0.6V96.9z"/>
		<path id="XMLID_18_" class="st0" d="M89.5,107.4h-6.2v-0.5c0.7,0,1.3-0.1,1.5-0.4c0.3-0.3,0.4-0.7,0.4-1.4V100h-7.8v5.1
			c0,1.1,0.6,1.7,1.9,1.8v0.5h-6.2v-0.5c0.8,0,1.3-0.1,1.5-0.4c0.3-0.3,0.4-0.7,0.4-1.4v-9.6c0-0.7-0.1-1.1-0.4-1.4
			c-0.3-0.2-0.8-0.4-1.5-0.4v-0.5h6.2v0.5c-0.8,0-1.3,0.1-1.5,0.4c-0.3,0.2-0.4,0.7-0.4,1.4v3.8h7.8v-3.8c0-0.7-0.1-1.1-0.4-1.4
			c-0.3-0.2-0.8-0.4-1.5-0.4v-0.5h6.2v0.5c-0.8,0-1.3,0.1-1.5,0.4c-0.3,0.2-0.4,0.7-0.4,1.4v9.6c0,0.7,0.1,1.1,0.4,1.4
			c0.3,0.2,0.8,0.4,1.5,0.4V107.4z"/>
		<path id="XMLID_15_" class="st0" d="M107.8,98.8c0,2.5-0.9,4.6-2.8,6.2c-1.9,1.6-4.3,2.4-7.2,2.4h-6.7v-0.5c0.8,0,1.3-0.1,1.5-0.4
			c0.3-0.3,0.4-0.7,0.4-1.4v-9.6c0-0.7-0.1-1.1-0.4-1.4c-0.3-0.2-0.8-0.4-1.5-0.4v-0.5h10C105.6,93.2,107.8,95.1,107.8,98.8z
			 M105.4,100.2c0-4.4-2.1-6.5-6.3-6.5c-1.5,0-2.7,0.3-3.7,0.9v11.1c1.4,0.7,2.7,1,4,1c1.9,0,3.5-0.7,4.6-2
			C105,103.5,105.4,102,105.4,100.2z"/>
		<path id="XMLID_12_" class="st0" d="M123.2,107.4h-4.6v-0.5h0.3c0.1,0,0.2-0.1,0.2-0.4c0-0.1,0-0.2-0.1-0.2l-1.5-3.8H112
			c-0.6,1.4-0.9,2.5-0.9,3.2c0,0.4,0.1,0.7,0.4,0.9c0.3,0.2,0.6,0.3,1.1,0.3h0.7v0.5h-5.7v-0.5c1,0,1.8-0.9,2.6-2.6l5.2-11.6h0.7
			l4.5,11.3c0.3,0.8,0.6,1.4,0.9,1.8c0.5,0.7,1,1.1,1.7,1.1V107.4z M117.3,101.7l-2.3-5.9l-2.7,5.9H117.3z"/>
		<path id="XMLID_10_" class="st0" d="M137.6,93.7c-0.9,0-1.9,0.8-3,2.5l-3.9,5.7v3.1c0,1.1,0.6,1.7,1.9,1.8v0.5h-6.2v-0.5
			c0.8,0,1.3-0.1,1.5-0.4c0.3-0.3,0.4-0.7,0.4-1.4v-3.1l-3.2-5.6c-0.4-0.8-0.8-1.3-1.1-1.6c-0.6-0.6-1.1-1-1.7-1v-0.5h4.6v0.5
			c-0.3,0-0.5,0.1-0.5,0.3c0,0.1,0,0.1,0.1,0.2l4,6.9c2.1-2.8,3.1-4.8,3.1-6.1c0-0.5-0.2-0.9-0.6-1.1c-0.3-0.1-0.8-0.2-1.5-0.2v-0.5
			h6.1V93.7z"/>
	</g>
	<g id="XMLID_3_">
		<path id="XMLID_8_" class="st0" d="M21.9,99c0,0.1,0,0.1,0,0.2L21.9,99z"/>
		<path id="XMLID_4_" class="st0" d="M32.1,94.3c0,0,1.9,0,1.9-3.8c0-4.8-5.1-4.8-5.1-4.8H17.7v1c0,0,1.3-0.2,1.8,0.3v10.2v7.3
			c0,0,0,1.6-0.3,1.6c-0.8,0-1.5,0-1.5,0v1.2h12.7c0,0,5.4,0.2,5.4-6.3C35.8,94.5,32.1,94.3,32.1,94.3z M21.7,87.7h4
			c0,0-1.3,0.9-2.3,2.2c-1.5,2-1.8,6.2-1.8,6.2V87.7z M29.5,93.9c-0.6,1.8-1.6,3.2-3.3,3.5c-1.5,0.3-4.6,0.3-4.6,0.3
			s0.1,0.5,0.2,1.3c0,0,1.2-0.8,3.1,0.4c1.2,0.7,1.5,1.3,1.5,1.3s0.2,0-0.1-0.7c-0.3-0.7-0.9-1.1-0.9-1.1s0.5-0.2,1.5,0.5
			c0.9,0.8,1,2.3,1,3.1c0,0.2-0.1,0.9-0.1,0.9s-0.1-0.1-0.4-0.3c-0.3-0.1-1,0.1-2.1-0.5c-1.1-0.7-1.3-2.6-1.8-3
			C23,99,22,99.2,22,99.2c0.2,1.1,0.5,2.5,0.9,3.4c0.6,1.6,1.7,2.7,1.7,2.7h-2.9v-7.6c0,0,1.6-3,3.6-4.8c1.6-1.4,3.6-1.9,3.6-1.9
			s-1.2-0.2-3.1,0.9s-2.9,2.3-2.9,2.3s1.5-5.6,4.8-5.6s4.6,1,4.6,1S30.1,92,29.5,93.9z"/>
	</g>
</g>
</svg>
